# xmcd
#
# Track frame offsets: 
#        150
#        32565
#        59181
#        81545
#        90746
#        103595
#        123608
#        134434
#        152000
#        170615
#        207919
#        243674
#
# Disc length: 3706 seconds
#
# Revision: 0
# Processed by: cddbd v1.5.2PL0 Copyright (c) Steve Scherf et al.
# Submitted via: ExactAudioCopy v0.99pb3
#
DISCID=b00e780c
DTITLE=Kasa Chorych - Skiba
DYEAR=2008
DGENRE=blues
TTITLE0=Polski blues
TTITLE1=Kochaj czlowieka
TTITLE2=Szlaufik Blues
TTITLE3=Blues o rannym  wstawaniu
TTITLE4=Halina M
TTITLE5=O czlowieku ktory nie kolysze sie w rytmie bluesa
TTITLE6=Kiedy tancze gubie buty
TTITLE7=Ameryka
TTITLE8=Zyje z dnia na dzien
TTITLE9=Lutek pogromca lwow
TTITLE10=Jak nas gonili tacy jedni
TTITLE11=Solidarnosc Blues
EXTD=
EXTT0=
EXTT1=
EXTT2=
EXTT3=
EXTT4=
EXTT5=
EXTT6=
EXTT7=
EXTT8=
EXTT9=
EXTT10=
EXTT11=
PLAYORDER=
